<?xml version="1.0" encoding="UTF-8"?><svg xmlns="http://www.w3.org/2000/svg" viewBox="0 0 626.5 872"><defs><style>.e{fill:#cbffa2;}</style></defs><g id="a"/><g id="b"><g id="c"><g id="d"><polygon class="e" points="48.99 436 35 438.5 45.7 420.5 55.58 420.5 62 412.5 64 420.5 48.99 436"/><polygon class="e" points="626.5 264 624.5 273 598.5 310 593.5 325 592.5 336 594.5 342 590.5 350 575.5 382 575.5 388 572.5 394 572.5 401 554.5 418 546.5 426 545.5 433 541.5 445 538.5 455 528.5 465 522.5 473 513.5 478 513.5 484 501.5 482 481.5 487 468.5 488 459.5 493 454.5 501 446.5 505 435.85 505 437.5 508 451.13 508 464.5 499 477.5 493 496.5 488 504.5 492 501.5 501 501.5 505 498.5 507 502.5 512 515.5 516 523.5 522 526.5 527 525.5 530 498.5 546 493.5 544 490.5 541 480.5 541 470.5 550 457.5 565 439.5 578 418.5 579 406.5 573 398.5 572 389.5 569.88 379.5 559 374.5 559 384.5 570 387.65 579 404.77 579 422.5 586 444.5 590 462.5 598 479.5 597 491.5 584 497.5 574 504.5 573 509.5 569 523.5 578 526.5 585 543.5 589 552 598 573.5 605 590.5 618 592.5 633 569.5 663 560.69 663 560.5 671 567.5 688 575.5 709 543.5 729 524.5 740 518.5 753 495.5 778 464.5 797 446.5 808 420.58 808 406.5 806 396.5 806 396.5 821 392.5 827 377.65 827 365.5 834 347.5 845.11 334.5 846 335.5 834 330.5 834 330.24 846 315.5 837 313.5 831 313.5 826 302.5 828 287.5 808 287.5 826 290.5 830 297.5 839 297.58 846 297.5 861 291.5 866 275.5 856 267.5 850 266.5 842 240.5 824 229.5 827 224.5 835 226.5 847 230.5 869 228.5 872 218.5 867 217.5 860 216.5 842 209.5 834 201.5 822 194.5 800 197.5 792 207.5 791 211.5 800 212.5 809 218.5 811 218.5 804 211.5 784 218.5 773 222.5 762 237.5 743 242.5 731 242.5 724 249.5 717 254.5 703 260.5 700 268.5 694 269.5 678 266.5 669 254.5 655 241.74 648.5 239.5 640 240.5 634 244.5 627 243.5 615 243.5 603 245.5 590 252.5 586 259.5 587 267.5 589 275.5 593 295.5 605 300.5 607 287.5 597 272.5 587 266.5 580 248.5 578 247.5 565 252.5 554 255.5 549 245.5 555 241.5 566 241.5 578 240.5 586 236.5 597 231.5 604 225.5 602 222.5 592 221.5 586 220.5 596 215.5 595 211.5 587 208.5 582 206.5 589 203.5 598 204.5 607 202.5 610 193.5 608 189.5 601 188.5 590 191.5 575 197.5 562 212.5 548 222.5 539 226.5 531 232.5 527 242.5 520 235.5 520 226.5 523 218.5 537 209.5 541 201.5 550 193.5 556 188.5 564 186.5 573 181.5 573 175.5 565 177.5 585 181.5 608 187.5 615 187.5 624 174.5 634 169.5 653 165.5 673 155.5 692 150.5 696 157.5 705 153.5 715 139.5 720 123.5 714 127.5 697 134.5 685 138.5 662 143.5 644 153.5 631 167.5 617 171.5 607 162.5 618 153.5 623 148.5 616 146.5 605 149.5 599 157.5 586 146.5 593 146.5 587 147.5 583 154.5 575 146.5 580 149.5 569 152.5 564 158.5 556 165.5 554 163.5 547 165.5 542 166.5 536 162.5 539 159.5 542 156.5 542 164.5 526 159.5 527 156.5 528 153.5 522 153.5 513 155.5 507 162.5 501 166.5 497 169.5 497 168.5 490 164.84 485.5 170.5 482 182.5 473 185.5 473 186.5 467 180.5 465 184.5 459 190.5 459 187.5 453 189.5 447 194.5 441 201.18 436 201.5 432 208.5 427 217.5 425 222.5 427 227.5 422 214.5 421 214.5 414 223.5 403 229.5 396 225.5 391 218.5 388 201.5 386 204.5 390 219.5 393 220.5 402 212.5 407 209.5 413 202.5 419 185.5 434 178.5 437 177.5 441 164.5 457 156.5 460 150.5 457 146.5 449 144.5 451 130.5 449 123.5 442.4 118.5 433 118.5 428.71 125.5 426 140.5 425 147.5 419 132.5 422 120.5 421 110.5 418 100.5 418 93.5 414 93.5 408.95 101.5 403 115.5 403 128.5 398 134.5 404 137.5 404 135.5 400 137.5 394 137.5 390 143.5 388 154.5 388 159.5 383 149.5 383 151.5 376 141.5 376 134.5 374 140.5 364 144.5 348 155.5 350 148.5 340 155.5 331 161.5 329 168.5 329 174.5 332 174.5 328 163.5 322 165.5 313 169.5 308 168.5 299 175.5 298 185.5 299 189.5 304 187.5 297 179.5 292 164.5 292 159.5 289 166.5 280 174.5 280 173.5 273 164.5 272 155.5 277 150.5 269 149.5 261 149.5 254 146.5 249 146.5 236 152.5 228 159.5 232 167.5 239 165.5 230 159.5 221 151.5 214 152.5 205 159.5 202 166.5 203 166.5 200 152.5 192 155.5 167 166.5 167 178.46 183.5 180.5 176 173.5 164 178.5 150 188.5 153 188.5 160.32 201 169.01 201 159.19 210.45 165.84 216 159.5 228.97 165.84 234 174.5 236.76 177.73 239.5 178 240.5 174 226.73 150 209.5 135 199.5 123 202.5 115 209.5 121 217.5 116 216.5 100 207.5 89 212.5 83 224.5 89 235.5 88 249.5 90 242.5 75 238.5 58 243.5 53 243.5 32 249.5 18.89 257.5 8 271.5 10 277.5 14 284.5 13 292.5 18 298.5 24 304.5 18 316.5 22 323.5 31 324.5 36 334.5 26 343.5 26 348.5 29 356.5 22 377.5 20 383.5 22 399.5 23 413.5 12 424.5 13 424.5 16.26 441.5 16 445.5 11 445.5 3.35 450.5 0 472.5 5 472.5 9.14 484.5 9 484.5 19.15 474.5 33 472.5 42 476.5 47 475.5 59 464.5 77 445.5 87 433.5 98 426.5 111 404.5 127 397.5 132 391.5 133 386.5 141 375.5 151 370.5 152 363.5 157 358.5 158 361.5 160 366.5 161 366.5 168 363.5 176 351.5 177 332 174.81 326.5 168 329.5 177 344.5 179 346.5 182 355.5 181 361.5 186 369.5 181 373.5 181 375.5 184 385.5 184 392.5 177 397.5 179 382.5 196 368.5 215 362.5 214 363.5 207 362.5 204 351.5 208 332 216.95 316.5 233 316.5 237 338.5 219 348.5 219 352.5 221 359.5 219 365.5 220 363.5 224 349.5 234 337.5 248 321.5 251 320.5 256 326.5 259 343.5 257 360.5 243 359.5 239 382.5 238 399.5 228 412.5 223 440.5 212 456.5 213 466.5 221 484.5 223.8 503.5 219 541.5 221 580.5 223 590.5 219 596.5 220 604.5 220 623.5 248 626.5 264"/><polygon class="e" points="26 442.5 29 446.5 20.66 446.5 18 454.5 9 460.5 7.48 465.92 2 463.5 0 451.5 0 447.09 9.13 442.5 14.5 444.78 26 442.5"/><polygon class="e" points="41 255.5 39 248.5 43 245.79 43 239.5 48 239.86 48 247.5 59 250.5 56 245.5 57 237.5 53 227.5 61 216.5 63 227.5 76.34 241.5 84 243.5 88 244.5 92 249.5 93.5 244.47 86 235.5 82 211.5 89.18 202.5 98 202.5 104 209.5 113 223.5 113 237.5 111 249.74 111 259.63 107 264.5 111 266.5 115 280.5 120 291.5 136 301.5 150 297.5 161 297.5 162 305.5 160 311.5 152 314.5 148 318.5 147 325.5 140 334.74 127.07 343.5 120 343.5 120 336.5 127 325.5 132.34 318.5 140 313.5 130 313.5 120 312.5 117.85 318.5 112 318.5 110.27 313.5 98 313.5 86 306.5 77 298.17 74 285.5 77 278.08 73 273.5 73 266.5 69 262.5 63 262.5 62 272.5 57 271.5 50 267.5 45 261.5 41 255.5"/><polygon class="e" points="122 281.5 120 268.5 121 254.03 126 248.5 127.94 243.65 130 238.5 132 246.5 126 266.55 126 273 122 281.5"/><polygon class="e" points="127.73 281.5 136.3 286 136.3 290.5 130 290.5 126 285.65 127.73 281.5"/><polygon class="e" points="103 365.5 108 365.5 110 371.5 103 378.5 97 373.5 99 369.5 103 365.5"/><polygon class="e" points="126.41 581.51 116 601.5 108 613.5 97 605.5 100 588.1 105 578.5 113.5 576.9 110.27 574 113.5 565.37 125 553.5 140 539.5 149 534.5 147 547.5 137 560.5 126.41 581.51"/><polygon class="e" points="91 612.5 100 629.5 100 639.49 85.56 648.5 77.65 648.5 70 654.98 64 652.5 64 640.81 68 634.5 64 626.32 70 621.7 67 613.5 61 616.5 44 632.5 38 631.5 44 616.5 48 603.5 53 596.5 63 590.5 66 596.5 78 585.5 93.5 581.51 91 612.5"/><polygon class="e" points="93.5 354.18 85 362.5 75.5 354.84 70 347.5 81 337.5 87.87 337.5 93.5 344.96 93.5 354.18"/><polygon class="e" points="97 492.23 101.7 488.6 93.5 488.6 89.51 485.5 97 475.75 100.5 470.5 114 466.5 115 460.5 107 464.5 99 464.5 97 458.95 87 453.5 78.97 448.42 81.75 437.21 88 432.5 100.5 426.33 110 430.62 118 447.5 126 456.5 141 456.5 157 470.5 157 480.69 145 492.5 129 501.5 126 497.83 115 503.5 93.5 505.5 74 505.5 70 499.8 70 489.92 78.97 489.59 97 492.23"/><polygon class="e" points="200 697.5 187 691.5 181 679.5 181 662.5 177.15 654.98 177.15 648.5 196 634.5 207.79 648.5 207.79 662.89 212 676.5 212 690.23 200 697.5"/></g></g></g></svg>